{"title":"Borgman [2013] BRRip XviD - CODY","uid":9727118,"size":843001605,"categoryP":"video","categoryS":"movies","magnet":"?xt=urn:btih:c765d140b739ef28c223b665447cc18f49695cf0&amp;dn=Borgman+%5B2013%5D+BRRip+XviD+-+CODY&amp;tr=udp%3A%2F%2Ftracker.openbittorrent.com%3A80&amp;tr=udp%3A%2F%2Fopen.demonii.com%3A1337&amp;tr=udp%3A%2F%2Ftracker.coppersurfer.tk%3A6969&amp;tr=udp%3A%2F%2Fexodus.desync.com%3A6969","seeders":2,"leechers":1,"uploader":"CODYBOSS1969","files":7,"time":1394308417,"description":"General\nComplete name                            : Borgman [2013] BRRip XviD - CODY.avi\nFormat                                   : AVI\nFormat/Info                              : Audio Video Interleave\nFile size                                : 803 MiB\nDuration                                 : 1h 53mn\nOverall bit rate                         : 992 Kbps\nWriting application                      : VirtualDubMod 1.5.10.3 | www.virtualdub-fr.org || (build 2550/release)\nWriting library                          : VirtualDubMod build 2550/release\n\nVideo\nID                                       : 0\nFormat                                   : MPEG-4 Visual\nFormat profile                           : Advanced Simple@L5\nFormat settings, BVOP                    : 4\nFormat settings, QPel                    : No\nFormat settings, GMC                     : No warppoints\nFormat settings, Matrix                  : Default (H.263)\nCodec ID                                 : XVID\nCodec ID/Hint                            : XviD\nDuration                                 : 1h 53mn\nBit rate                                 : 855 Kbps\nWidth                                    : 720 pixels\nHeight                                   : 296 pixels\nDisplay aspect ratio                     : 2.40:1\nFrame rate                               : 24.000 fps\nColor space                              : YUV\nChroma subsampling                       : 4:2:0\nBit depth                                : 8 bits\nScan type                                : Progressive\nCompression mode                         : Lossy\nBits/(Pixel*Frame)                       : 0.167\nStream size                              : 692 MiB (86%)\nWriting library                          : XviD 73\n\nAudio\nID                                       : 1\nFormat                                   : MPEG Audio\nFormat version                           : Version 1\nFormat profile                           : Layer 3\nCodec ID                                 : 55\nCodec ID/Hint                            : MP3\nDuration                                 : 1h 53mn\nBit rate mode                            : Constant\nBit rate                                 : 128 Kbps\nChannel(s)                               : 2 channels\nSampling rate                            : 48.0 KHz\nCompression mode                         : Lossy\nStream size                              : 104 MiB (13%)\nAlignment                                : Aligned on interleaves\nInterleave, duration                     : 42 ms (1.00 video frame)\nInterleave, preload duration             : 504 ms\nWriting library                          : LAME3.99r\nEncoding settings                        : -m s -V 4 -q 2 -lowpass 17 -b 128\n\n\nAudio language                           : Dutch\n\nIMDB link:                                &lt;a href=&quot; http://www.imdb.com/title/tt1954315/&quot; rel=&quot;nofollow&quot; target=&quot;_NEW&quot;&gt; http://www.imdb.com/title/tt1954315/&lt;/a&gt;\n\nSubtitles included                       : English, Romanian\n\nPlease seed at least 1,5:1. This way this torrent has a chance to survive !\n\nThanks. Enjoy !! \t\t\t\t\t\t\t","torrent":{"xt":"urn:btih:c765d140b739ef28c223b665447cc18f49695cf0","amp;dn":"Borgman+%5B2013%5D+BRRip+XviD+-+CODY","amp;tr":["udp%3A%2F%2Ftracker.openbittorrent.com%3A80","udp%3A%2F%2Fopen.demonii.com%3A1337","udp%3A%2F%2Ftracker.coppersurfer.tk%3A6969","udp%3A%2F%2Fexodus.desync.com%3A6969"],"infoHash":"c765d140b739ef28c223b665447cc18f49695cf0","infoHashBuffer":{"type":"Buffer","data":[199,101,209,64,183,57,239,40,194,35,182,101,68,124,193,143,73,105,92,240]},"announce":[],"urlList":[]}}